<?xml version="1.0" standalone="no"?><!DOCTYPE svg PUBLIC "-//W3C//DTD SVG 1.1//EN" "http://www.w3.org/Graphics/SVG/1.1/DTD/svg11.dtd"><svg t="1648628393071" class="icon" viewBox="0 0 1024 1024" version="1.1" xmlns="http://www.w3.org/2000/svg" p-id="29980" data-darkreader-inline-fill="" xmlns:xlink="http://www.w3.org/1999/xlink" width="200" height="200"><defs><style type="text/css"></style></defs><path d="M507.4944 865.0752c135.7312 0 245.76-30.3616 245.76-67.8144v-45.6192l-491.52 3.328v42.2912c0 37.4528 110.0288 67.8144 245.76 67.8144z" fill="#5C5C5C" p-id="29981" data-darkreader-inline-fill="" style="--darkreader-inline-fill:#596164;"></path><path d="M261.7344 751.6416a245.76 72.1664 0 1 0 491.52 0 245.76 72.1664 0 1 0-491.52 0Z" fill="#AEAEAE" p-id="29982" data-darkreader-inline-fill="" style="--darkreader-inline-fill:#a39e96;"></path><path d="M512.6144 803.2c115.456 0 208.2304-31.2064 208.2304-69.632 0-38.4512 5.2224-173.824-2.7136-236.7232-7.9104-62.8992-38.272-188.5696-206.336-188.5696s-198.1184 128.8448-204.0832 188.5696c-5.9648 59.7248-4.9664 221.184-4.9664 236.7232 0 38.4256 94.4128 69.632 209.8688 69.632z" fill="#d81e06" p-id="29983" data-darkreader-inline-fill="" style="--darkreader-inline-fill:#9d483e;" data-spm-anchor-id="a313x.7781069.0.i13" class="selected"></path><path d="M490.2912 684.8c-0.6144 0-1.0752-0.1536-1.3824-0.4608-2.2016-0.64-2.9696-1.8944-2.3552-3.7632l14.4896-86.016H438.016c-1.536 0-2.6368-0.6144-3.2512-1.8688-0.9472-1.2544-0.768-2.6624 0.4608-4.224l97.0752-127.8464c1.2544-1.8688 2.6368-2.176 4.1984-0.9216 1.536 0.3072 2.3296 1.5616 2.3296 3.7376l-14.464 86.016h55.552c1.536 0 2.6368 0.64 3.2512 1.8688a9.7024 9.7024 0 0 1 0 4.2496l-89.6 127.8208a4.48 4.48 0 0 1-3.2768 1.408z" fill="#FFFFFF" p-id="29984" data-darkreader-inline-fill="" style="--darkreader-inline-fill:#dcdad7;"></path><path d="M487.0144 153.6m25.6 0l0 0q25.6 0 25.6 25.6l0 62.2336q0 25.6-25.6 25.6l0 0q-25.6 0-25.6-25.6l0-62.2336q0-25.6 25.6-25.6Z" fill="#d81e06" p-id="29985" data-darkreader-inline-fill="" style="--darkreader-inline-fill:#9d483e;" data-spm-anchor-id="a313x.7781069.0.i15" class="selected"></path><path d="M739.6864 236.8256c10.8544 9.1648 12.288 25.3696 3.1744 36.3008l-39.5264 47.4368a25.4976 25.4976 0 0 1-36.0448 3.1488 25.856 25.856 0 0 1-3.1744-36.3008l39.5264-47.4368a25.4976 25.4976 0 0 1 36.0448-3.1488zM860.5184 447.5648a25.856 25.856 0 0 1-20.9152 29.8752l-60.1856 10.7008a25.7024 25.7024 0 0 1-29.824-20.8896 25.856 25.856 0 0 1 20.9408-29.8752l60.16-10.7008a25.7024 25.7024 0 0 1 29.824 20.8896zM164.6848 447.5648a25.7024 25.7024 0 0 1 29.824-20.8896l60.1856 10.7008c14.0288 2.4832 23.3984 15.872 20.9408 29.8752a25.7024 25.7024 0 0 1-29.824 20.8896L185.6 477.44a25.856 25.856 0 0 1-20.9408-29.8752zM285.5168 236.8256a25.4976 25.4976 0 0 1 36.0448 3.1488l39.552 47.4368c9.088 10.9312 7.68 27.136-3.1744 36.3008a25.4976 25.4976 0 0 1-36.0448-3.1488L282.3424 273.1264a25.856 25.856 0 0 1 3.1744-36.3008z" fill="#d81e06" p-id="29986" data-darkreader-inline-fill="" style="--darkreader-inline-fill:#9d483e;" data-spm-anchor-id="a313x.7781069.0.i14" class="selected"></path></svg>