<?xml version="1.0" standalone="no"?><!DOCTYPE svg PUBLIC "-//W3C//DTD SVG 1.1//EN" "http://www.w3.org/Graphics/SVG/1.1/DTD/svg11.dtd"><svg t="1648632326185" class="icon" viewBox="0 0 1024 1024" version="1.1" xmlns="http://www.w3.org/2000/svg" p-id="62605" data-darkreader-inline-fill="" xmlns:xlink="http://www.w3.org/1999/xlink" width="200" height="200"><defs><style type="text/css"></style></defs><path d="M765.44 890.88h-506.88c-14.336 0-25.6-11.264-25.6-25.6s11.264-25.6 25.6-25.6h505.856c14.336 0 25.6 11.264 25.6 25.6-0.512 14.336-11.776 25.6-24.576 25.6z m100.864-757.76c-14.336 0-25.6 11.264-25.6 25.6v758.784c0 14.336-11.264 25.6-25.6 25.6H258.56c-41.984 0-75.776-34.816-75.776-75.776 0-41.984 34.816-75.776 75.776-75.776h455.68c41.984 0 75.776-34.816 75.776-75.776V107.52c0-41.984-34.816-75.776-75.776-75.776H208.896C166.4 31.744 133.12 66.56 133.12 107.52v758.784c0 69.12 56.32 126.976 126.976 126.976h557.056c41.984 0 75.776-34.816 75.776-75.776V157.696c-2.048-13.312-13.312-24.576-26.624-24.576z" p-id="62606"></path></svg>