<?xml version='1.0' encoding='utf-8'?>
<svg xmlns="http://www.w3.org/2000/svg" xmlns:xlink="http://www.w3.org/1999/xlink" enable-background="new 0 0 162.9 46.6" version="1.1" viewBox="0 0 162.9 46.6">
<symbol id="i" viewBox="0 -2.756 8.595 2.756">
		<path d="m6.35-0.3l1 0.3c1.267-0.033 1.566-0.433 0.9-1.2-0.633-0.733-1.383-1.217-2.25-1.45-0.767-0.2-1.85-0.117-3.25 0.25-1.433 0.367-2.35 0.817-2.75 1.35 0.733 0.1 1.767 0.267 3.1 0.5 1.2 0.167 2.283 0.25 3.25 0.25z" clip-rule="evenodd" fill-rule="evenodd"/>
</symbol>
<symbol id="j" viewBox="0 -43.6 132.7 43.59">
		<path d="m122.2-0.15c5.175-0.315 8.675-0.499 10.5-0.55-1.712 3e-3 -3.646-0.063-5.8-0.2-3-0.233-5.25-0.4-6.75-0.5-2.6-0.133-4.617-0.333-6.05-0.6-1.967-0.333-3.95-0.9-5.95-1.7-2.566-1.033-3.867-1.566-3.9-1.6-1.533-0.567-2.883-0.95-4.05-1.15-2.667-0.433-5.633-1.533-8.9-3.3-3.7-2.233-6.483-3.883-8.35-4.95-2.733-1.566-5.233-2.716-7.5-3.45-2.367-0.767-5.083-1.3-8.15-1.6 1.5-1.767 6.034-3 13.6-3.7 5-0.433 11.417-1.483 19.25-3.15 1.233-0.267 3.017-0.9 5.35-1.9 1.753-0.737 3.195-1.271 4.325-1.6-0.505 0.095-1.097 0.161-1.775 0.2-1.5 0.066-2.45 0.133-2.85 0.2-0.633 0.1-1.517 0.367-2.65 0.8-1.167 0.4-2.066 0.667-2.7 0.8-1.3 0.233-2.934 0.25-4.9 0.05-0.1 0-1.7-0.217-4.8-0.65-2.566-0.1-4.45-0.283-5.65-0.55-2.067-0.467-3.167-1.617-3.3-3.45-0.067-1.233 0.283-3.066 1.05-5.5 0.733-2.367 1.033-4.167 0.9-5.4-1.566 1.6-2.65 3.567-3.25 5.9-0.267 0.9-0.433 2.3-0.5 4.2-0.1 1.933-0.267 3.317-0.5 4.15-0.333 1.133-1.433 2.15-3.3 3.05-0.067 0.033-1.667 0.65-4.8 1.85-1.233 0.467-3.233 1.067-6 1.8-2.667 0.7-4.65 1.316-5.95 1.85-3.267 1.367-6.533 2.267-9.8 2.7-6.367 0.8-11.35 1.267-14.95 1.4-2.767 0.133-5.883 0.517-9.35 1.15-0.6 0.1-3.683 0.733-9.25 1.9-1.067 0.2-2.517 0.417-4.35 0.65-2.533 0.3-3.983 0.483-4.35 0.55-0.6 0.1-1.75 0.117-3.45 0.05-1.423-0.033-2.54 0.083-3.34 0.35 0.367 1.2 1.217 2.767 2.55 4.7l18.35-0.35c1.233-0.533 3.117-1.383 5.65-2.55 2.267-0.967 4.233-1.567 5.9-1.8 1.4-0.2 3.133-0.35 5.2-0.45 1.167-0.067 2.883-0.133 5.15-0.2 4.2-0.167 7.017-0.233 8.45-0.2 3.2 0.1 5.883 0.5 8.05 1.2 1.667 0.534 3.817 0.85 6.45 0.95 1.5 0.033 3.733 0.05 6.7 0.05 2.433 0.1 5.283 0.383 8.55 0.85 1.3 0.2 4.15 0.7 8.55 1.5 1.4 0.267 3.284 1.017 5.65 2.25 2.5 1.267 4.417 2.067 5.75 2.4 1.1 0.267 2.716 0.767 4.85 1.5 2.1 0.733 3.7 1.233 4.8 1.5 3 0.667 6.87 0.85 11.6 0.55z" clip-rule="evenodd" fill-rule="evenodd"/>
</symbol>
<symbol id="k" viewBox="0 -5.213 9.861 5.213">
		<path d="m7.15 0l-0.3-0.7c1.633 0 2.6-0.017 2.9-0.05 0.5-1.8-0.683-3.1-3.55-3.9-2.633-0.733-4.7-0.75-6.2-0.05 1.067 1.034 2.2 1.917 3.4 2.65 0.567 0.367 1.817 1.05 3.75 2.05z" clip-rule="evenodd" fill-rule="evenodd"/>
</symbol>
<symbol id="l" viewBox="0 -2.663 12.05 2.67">
		<path d="m12.05-0.95v-0.7l-0.95-0.45c-2.9-0.433-5.233-0.617-7-0.55-1.533 0.2-2.9 0.567-4.1 1.1 0.4 0.333 0.817 0.517 1.25 0.55 0.3 0.033 0.8 0.05 1.5 0.05 0.467 0.034 1.233 0.2 2.3 0.5 1.067 0.267 1.783 0.417 2.15 0.45 0.667 0.033 1.433-0.05 2.3-0.25 0.5-0.133 1.35-0.367 2.55-0.7z" clip-rule="evenodd" fill-rule="evenodd"/>
</symbol>
<symbol id="m" viewBox="0.002 -4.782 8.148 4.782">
		<path d="m4.8 0l3.35-0.35c-0.5-1.233-1.367-2.3-2.6-3.2-1.4-1.034-2.767-1.417-4.1-1.15-1.767 0.367-1.917 1.15-0.45 2.35 0.433 0.333 1.7 1.117 3.8 2.35z" clip-rule="evenodd" fill-rule="evenodd"/>
</symbol>
<symbol id="n" viewBox="0 -6.627 19.35 6.623">
		<path d="m6.7-0.05c2 0.2 4.283-0.25 6.85-1.35 2.534-1.067 4.467-2.383 5.8-3.95-0.933-0.767-2.85-1.183-5.75-1.25-2.7-0.1-4.783 0.083-6.25 0.55-2.367 0.733-4.817 2.633-7.35 5.7l6.7 0.3z" clip-rule="evenodd" fill-rule="evenodd"/>
</symbol>
<symbol id="o" viewBox="0 -7.04 11.564 7.04">
		<path d="m6.4-5.6c-0.267-0.267-0.4-0.533-0.4-0.8-2.233-0.533-4.233-0.733-6-0.6 0.133 1.733 1 3.2 2.6 4.4 0.367 0.267 1.883 1.133 4.55 2.6l4.35-1.35c0.1-0.367 0.083-0.816-0.05-1.35-1.8-0.433-3.483-1.4-5.05-2.9z" clip-rule="evenodd" fill-rule="evenodd"/>
</symbol>
<symbol id="p" viewBox="0 -2.9 13.3 2.9">
		<path d="m7.6 0l5.7-0.7c-0.633-0.133-1.517-0.5-2.65-1.1-1-0.534-1.933-0.833-2.8-0.9-2-0.133-3.333-0.2-4-0.2-1.667 0-2.95 0.183-3.85 0.55 1.033 1 2.2 1.667 3.5 2 0.9 0.2 2.267 0.317 4.1 0.35z" clip-rule="evenodd" fill-rule="evenodd"/>
</symbol>
		<use transform="matrix(1 0 0 -1 61.6 26.35)" y="-2.9" width="13.3" height="2.9" enable-background="new" opacity=".3008" xlink:href="#p"/>
		<use transform="matrix(1 0 0 -1 95.4 29.7)" y="-7.04" width="11.564" height="7.04" enable-background="new" opacity=".3008" xlink:href="#o"/>
		<use transform="matrix(1 0 0 -1 133.2 8)" y="-6.627" width="19.35" height="6.623" enable-background="new" opacity=".3008" xlink:href="#n"/>
		<use transform="matrix(1 0 0 -1 61.4 31.35)" x="0.002" y="-4.782" width="8.148" height="4.782" enable-background="new" opacity=".3008" xlink:href="#m"/>
		<use transform="matrix(1 0 0 -1 150.85 2.3999)" y="-2.663" width="12.05" height="2.67" enable-background="new" opacity=".3008" xlink:href="#l"/>
		<use transform="matrix(1 0 0 -1 131.05 31.35)" y="-5.213" width="9.861" height="5.213" enable-background="new" opacity=".3008" xlink:href="#k"/>
		<use transform="matrix(1 0 0 -1 118.55 36.05)" y="-2.756" width="8.595" height="2.756" enable-background="new" opacity=".3008" xlink:href="#i"/>
<g clip-rule="evenodd" fill="#494309" fill-rule="evenodd">
	<path d="m69.2 25.35l5.7 0.7c-0.633 0.134-1.517 0.5-2.65 1.101-1 0.533-1.933 0.833-2.8 0.899-2 0.134-3.333 0.2-4 0.2-1.667 0-2.95-0.184-3.85-0.55 1.033-1 2.2-1.667 3.5-2 0.9-0.2 2.267-0.316 4.1-0.35z"/>
	<path d="m106.9 30.05c0.433 2.066-0.967 3.634-4.2 4.7-2.5 0.833-4.934 1.15-7.3 0.95 0.133-1.733 1-3.2 2.6-4.4 0.367-0.267 1.884-1.133 4.55-2.6l4.35 1.35z"/>
	<path d="m140.55 13.05c-2.366-0.733-4.816-2.633-7.35-5.7l6.7-0.3c2-0.2 4.283 0.25 6.85 1.35 2.533 1.067 4.467 2.383 5.8 3.95-0.933 0.767-2.85 1.183-5.75 1.25-2.7 0.1-4.78-0.083-6.25-0.55z"/>
	<path d="m66.2 30.35l3.35 0.351c-0.5 1.233-1.366 2.3-2.6 3.2-1.4 1.033-2.767 1.416-4.1 1.149-1.767-0.366-1.917-1.149-0.45-2.35 0.433-0.334 1.7-1.117 3.8-2.35z"/>
	<path d="m158.05 1.4c0.667-0.033 1.434 0.05 2.3 0.25 0.5 0.133 1.351 0.367 2.551 0.7v0.7c-1.367 0.934-3.4 1.333-6.101 1.2-2.366-0.133-4.35-0.566-5.95-1.3 0.4-0.333 0.817-0.517 1.25-0.55 0.301-0.033 0.801-0.05 1.5-0.05 0.467-0.034 1.233-0.2 2.301-0.5 1.07-0.267 1.78-0.416 2.15-0.45z"/>
	<path d="m138.2 30.35l-0.3 0.7c1.633 0 2.6 0.017 2.899 0.05 0.5 1.801-0.683 3.101-3.55 3.9-2.633 0.733-4.7 0.75-6.2 0.05 1.067-1.033 2.2-1.916 3.4-2.649 0.57-0.368 1.82-1.051 3.75-2.051z"/>
	<path d="m124.9 35.35l1-0.3c1.267 0.033 1.566 0.434 0.899 1.2-0.633 0.733-1.383 1.217-2.25 1.45-0.767 0.2-1.85 0.116-3.25-0.25-1.433-0.367-2.35-0.816-2.75-1.351 0.733-0.1 1.767-0.267 3.101-0.5 1.2-0.165 2.28-0.249 3.25-0.249z"/>
</g>
<g clip-rule="evenodd" fill="#3A3607" fill-rule="evenodd">
	<path d="m158.9 1.8l0.5 0.5c-0.267 0.534-0.767 0.8-1.5 0.8-0.733-0.034-1.233-0.3-1.5-0.8 0.57-0.167 1.4-0.333 2.5-0.5z"/>
	<path d="m67.4 30.3h0.5c0.133 0.9-0.267 1.65-1.2 2.25-0.9 0.601-1.767 0.767-2.6 0.5 0.2-0.467 0.783-0.967 1.75-1.5 0.933-0.533 1.45-0.95 1.55-1.25z"/>
	<path d="m72.9 26.8c-1.633 0.1-2.9 0.167-3.8 0.2-1.6 0.033-2.817-0.1-3.65-0.4 0.6-0.399 1.917-0.583 3.95-0.55 2.067 0 3.233 0.25 3.5 0.75z"/>
	<path d="m103.4 28.8l0.25 0.25c2.199-0.233 2.933 0.351 2.199 1.75-0.366 0.667-1.533 1.351-3.5 2.05-1.399 0.5-2.732 0.884-4 1.15 1.334-3.4 3.02-5.134 5.05-5.2z"/>
	<path d="m135.9 6.55c0.933-0.033 1.916 0.134 2.949 0.5 0.601 0.2 1.534 0.55 2.801 1.05 0.3 0.1 1.183 0.55 2.649 1.35 0.335 0.182 0.644 0.34 0.925 0.475-0.386-0.082-0.827-0.157-1.324-0.225-1.567-0.233-2.634-0.467-3.2-0.7-1.4-0.633-2.467-1.083-3.2-1.35-1.267-0.5-2.383-0.7-3.35-0.6l1.75-0.5z"/>
	<path d="m125.65 35.3v0.25c-1.033 0.533-2.017 0.65-2.95 0.351 0.73-0.535 1.72-0.734 2.95-0.601z"/>
	<path d="m137.65 31.05v0.25c-0.367 0.134-0.95 0.783-1.75 1.95-0.634 0.9-1.567 1.233-2.801 1 0.434-0.333 1.2-0.866 2.301-1.6 1-0.667 1.75-1.2 2.25-1.6z"/>
</g>
		<use transform="matrix(1 0 0 -1 2 3)" y="-43.6" width="132.7" height="43.59" enable-background="new" opacity=".1484" xlink:href="#j"/>
<g clip-rule="evenodd" fill-rule="evenodd">
	<path d="m15.7 14.8c-4.967-0.333-8.184-0.667-9.65-1-1.633-0.366-3.116-0.917-4.45-1.65l-1.55-1.05c-0.066-0.534-0.017-1.15 0.15-1.85 0.333-1.4 1.067-2.483 2.2-3.25 1.1-0.733 2.35-1.184 3.75-1.35 0.7-0.1 1.284-0.117 1.75-0.05l4.9 1.35c3.5 1.066 5.884 2 7.15 2.8 1.466 0.934 5.7 2.066 12.7 3.4 6.633 1.267 12.367 2.1 17.2 2.5 10.433 0.9 21.35-0.45 32.75-4.05 3.768-1.2 8.717-2.917 14.851-5.15 4.434-1.634 7.616-2.65 9.55-3.05 1.833-0.367 5.217-0.633 10.15-0.8 5.199-0.2 8.866-0.467 11-0.8 4.366-0.7 9.366-0.95 15-0.75-8.4 0.933-14.85 1.683-19.35 2.25-4.899 0.534-8.566 0.967-11 1.3-4.267 0.566-7.333 1.216-9.2 1.95-4.633 1.8-8.533 3.3-11.699 4.5-5.967 2.333-10 3.967-12.101 4.9-2.733 1.233-7.167 2.483-13.3 3.75 0.033 0.033 0.267 0.316 0.7 0.85 0.3 0.4 0.617 0.75 0.95 1.05 1.167 1.066 3.95 2.183 8.35 3.35 4.434 1.267 8.184 1.934 11.25 2 6.867 0.2 12.767 0.983 17.7 2.35 1.399 0.4 3.767 1.4 7.1 3 1.033 0.434 2.167 0.816 3.4 1.15 2.133 0.533 3.25 0.816 3.35 0.85-2.2-0.133-4.916-0.566-8.149-1.3-3.567-0.833-6.25-1.434-8.051-1.8-2.1-0.434-4.732-0.667-7.899-0.7-4.167-0.033-6.767-0.1-7.8-0.2l-0.7-0.05c-1.634 2.634-2.617 5.283-2.95 7.95-0.167 1.5 0.05 2.783 0.65 3.85 0.066 0.101 0.899 1.167 2.5 3.2-1.667 0.033-3.117-0.8-4.351-2.5-1.1-1.467-1.716-3.066-1.85-4.8-0.2-1.733-0.184-3.566 0.05-5.5l0.2-2.75-3.6-0.3c-1.767-0.134-3.4-0.45-4.9-0.95-1.233-0.434-2.717-1.134-4.45-2.101-0.467-0.267-2.367-0.983-5.7-2.149-2.566-0.9-4.283-1.867-5.15-2.9-2.566 0.267-4.55 0.3-5.95 0.1-2-0.3-6.483-1.15-13.45-2.55-6.667-1.333-10.717-2.1-12.15-2.3-1.067-0.133-4.367-0.383-9.9-0.75z" fill="#4B3717"/>
		<path d="m62 16.25c0.733-0.133 1.983-0.017 3.75 0.35 1.6 0.3 2.767 0.316 3.5 0.05l-0.25-0.35c0.333-0.1 1.283-0.316 2.85-0.65 1.2-0.267 2.15-0.55 2.85-0.85-0.767-0.233-1.333-0.383-1.7-0.45 0.533-0.167 1.567-0.567 3.1-1.2 1.4-0.5 2.467-0.716 3.2-0.65-0.233 0.333-0.55 0.6-0.95 0.8 3.067-1.066 7.667-2.7 13.8-4.9 5.899-2.133 10.35-3.716 13.35-4.75 1.566-0.267 3.9-0.5 7-0.7 3.167-0.2 5.5-0.417 7-0.65 0.934-0.133 3.017-0.216 6.25-0.25l-1.95 0.25c-4.899 0.534-8.566 0.967-11 1.3-4.267 0.566-7.333 1.216-9.2 1.95-4.633 1.8-8.533 3.3-11.699 4.5-5.967 2.333-10 3.967-12.101 4.9-2.7 1.2-6.933 2.417-12.7 3.65l-0.55-0.25c-1-0.567-1.733-0.983-2.2-1.25-0.867-0.467-1.65-0.75-2.35-0.85z" fill="#3C2C12"/>
		<path d="m131.85 0.85l0.4-0.1c0.267-0.1 0.783-0.184 1.55-0.25 0.867-0.066 1.483-0.15 1.851-0.25 2.8-0.133 5.316-0.184 7.55-0.15l-13.05 1.65c0.5-0.167 1.07-0.467 1.7-0.9z" fill="#3C2C12"/>
		<path d="m30.9 14.1c1.934 0.367 3.467 0.716 4.6 1.05-2.167 0-3.767-0.066-4.8-0.2 1.1 0.433 2.433 0.716 4 0.85 0.833 0.067 2.267 0.117 4.3 0.15 1.133 0.033 2.717 0.3 4.75 0.8 2.167 0.533 3.75 0.833 4.75 0.9-0.433-0.4-1.1-0.716-2-0.95-1.033-0.233-1.783-0.434-2.25-0.6 0.5 0.133 1.434 0.333 2.8 0.6 1.134 0.233 2.05 0.466 2.75 0.7 1.134 0.4 2.333 0.684 3.6 0.85 0.767 0.1 1.95 0.25 3.55 0.45-0.733 0.333-1.267 0.533-1.6 0.6 0.667 0.2 1.417 0.083 2.25-0.35 1.133-0.534 1.883-0.833 2.25-0.9 0 1 0.9 2 2.7 3 1.8 1.034 3.284 1.417 4.45 1.15 0.9 0.533 2.517 1.116 4.85 1.75-0.067 0.133-0.15 0.283-0.25 0.45 1.033 0.933 2.683 1.5 4.95 1.699 1.267 0.101 3.05 0.201 5.35 0.301 0.366 0.633 0.949 1.083 1.75 1.35-1.467 1.033-2.45 3.85-2.95 8.45l-0.05 0.3c-0.1-1.934-0.066-3.616 0.1-5.05l0.2-2.75-3.6-0.3c-1.767-0.134-3.4-0.45-4.9-0.95-1.233-0.434-2.717-1.134-4.45-2.101-0.467-0.267-2.367-0.983-5.7-2.149-2.566-0.9-4.283-1.867-5.15-2.9-2.566 0.267-4.55 0.3-5.95 0.1-2-0.3-6.483-1.15-13.45-2.55-6.667-1.333-10.717-2.1-12.15-2.3-1.067-0.133-4.367-0.383-9.9-0.75-4.967-0.333-8.184-0.667-9.65-1-1.633-0.366-3.116-0.917-4.45-1.65l-1.55-1.05c-0.033-0.4 0-0.883 0.1-1.45 0.167-1.133 0.6-2.083 1.3-2.85 0.4 0.333 1 0.85 1.8 1.55 0.434 0.267 1.117 0.584 2.05 0.95 0.967 0.4 1.65 0.7 2.05 0.9-0.233-0.034-0.767-0.034-1.6 0-0.667 0.033-1.183-0.033-1.55-0.2 0.233 0.633 1.1 0.95 2.6 0.95 0.833 0 1.967-0.05 3.4-0.15 1.933 0.034 3.183 0.067 3.75 0.1 1.438 0.098 2.655 0.248 3.65 0.45-1.209-0.276-2.109-0.692-2.7-1.25 1.367 0 2.633 0.15 3.8 0.45 1.633 0.4 2.5 1 2.6 1.8 0.8-0.034 1.65 0.033 2.55 0.2 0.5 0.134 1.3 0.35 2.4 0.65 0.667 0.167 2.217 0.467 4.65 0.9z" fill="#3C2C12"/>
		<path d="m91.5 28.6c-0.533-0.666-0.967-1.116-1.3-1.35 1-0.134 2.283 0.033 3.85 0.5 1.9 0.533 3.2 0.833 3.9 0.9 0.767 0.066 1.816-0.117 3.149-0.551 0.834-0.1 1.567-0.05 2.2 0.15 0.134 0.066 0.817 0.366 2.05 0.9 1.034 0.466 2.867 0.916 5.5 1.35l1.7 0.8c1.033 0.434 2.167 0.816 3.4 1.15 2.133 0.533 3.25 0.816 3.35 0.85-2.2-0.133-4.916-0.566-8.149-1.3-3.567-0.833-6.25-1.434-8.051-1.8-2.066-0.4-4.6-0.634-7.6-0.7-4.4-0.066-6.9-0.116-7.5-0.15 0.167-0.633 0.517-0.916 1.05-0.85 1.233 0.135 2.05 0.168 2.45 0.101z" fill="#3C2C12"/>
		<polygon points="67.5 22 67 22.2 66.25 21.7" fill="#3C2C12"/>
		<path d="m49.85 14.65c3.533 0.333 7.066 0.4 10.6 0.2-1.233 0.5-3.034 0.55-5.4 0.15l2.05 0.7c-0.633 0.433-1.733 0.517-3.3 0.25-1.7-0.4-2.866-0.634-3.5-0.7-3.667-0.467-6.1-0.733-7.3-0.8 0.367 0.066 0.934 0.267 1.7 0.6-0.934 0.434-2.333 0.384-4.2-0.15-2-0.7-3.35-1.167-4.05-1.4-0.7-0.2-1.717-0.6-3.05-1.2 6.7 1.233 12.183 2.016 16.45 2.35z" fill="#735425"/>
		<path d="m19.65 8.85c-0.466-0.167-1.233-0.35-2.3-0.55s-1.85-0.383-2.35-0.55c0.233 0.2 0.35 0.467 0.35 0.8-1.1 0-2.633-0.417-4.6-1.25-1.867-0.833-3.4-1.2-4.6-1.1 0.503-0.237 0.978-0.329 1.425-0.275-1.442-0.232-2.483-0.54-3.125-0.925 1.267-0.4 2.417-0.533 3.45-0.4l4.9 1.35c3.5 1.066 5.884 2 7.15 2.8 0.6 0.367 1.8 0.816 3.6 1.35l0.65 0.55c-0.633-0.1-1.4-0.367-2.3-0.8-1.2-0.567-1.95-0.9-2.25-1z" fill="#735425"/>
		<path d="m72.95 13.65c-2.4 0.833-4.45 1.05-6.15 0.65v-0.05c5.167-0.7 10.434-1.917 15.8-3.65 3.768-1.2 8.717-2.917 14.851-5.15 1.156-0.426 2.231-0.81 3.225-1.15l-11.58 4.6c-1.6 0.667-3.783 1.367-6.55 2.1-3.466 0.9-5.733 1.533-6.8 1.9l0.95-0.1c-0.2 0.1-1.017 0.4-2.45 0.9l-1.6-0.15 0.3 0.1zm32.45-10.55c-1.068 0.152-2.019 0.344-2.851 0.575 1.877-0.624 3.36-1.049 4.45-1.275 1.467-0.267 3.017-0.45 4.65-0.55-0.867 0.333-1.533 0.55-2 0.65-0.17 0.033-1.58 0.233-4.25 0.6z" fill="#735425"/>
		<path d="m62.3 17.2l0.7-0.25c0.957-0.154 2.157 0.43 3.6 1.75h-0.1c0.3 0.333 0.833 0.966 1.6 1.9 0.867 0.767 2.316 1.483 4.35 2.15 1.566 0.767 2.816 1.25 3.75 1.45-1.567-0.033-2.633-0.084-3.2-0.15-1.133-0.167-2.167-0.533-3.1-1.1-1.633-1.034-2.883-1.767-3.75-2.2-0.9-0.467-1.65-1-2.25-1.6-0.367-0.367-0.9-1.017-1.6-1.95z" fill="#735425"/>
		<path d="m85.05 27.35c-0.233 0.4-0.616 0.784-1.149 1.15l0.149-0.5c0.134-0.1 0.267-0.233 0.4-0.4 0.133-0.133 0.333-0.216 0.6-0.25z" fill="#735425"/>
		<path d="m84.5 28.95c-0.833 0.733-1.483 1.767-1.95 3.1-0.399 1.167-0.6 2.434-0.6 3.8-0.066-1.899-0.033-3.133 0.1-3.699 0.101-0.4 0.351-0.867 0.75-1.4 0.434-0.566 0.7-1.017 0.8-1.35l0.2-0.7 0.7 0.249z" fill="#735425"/>
		<polygon points="83.6 28.65 83.9 28.5 83.8 28.7" fill="#735425"/>
		<path d="m96.65 26.8l-2.5-0.5c1.566 0.167 3.116 0.367 4.649 0.601-0.499-1e-3 -1.216-0.035-2.149-0.101z" fill="#735425"/>
</g>
</svg>