<?xml version="1.0" standalone="no"?><!DOCTYPE svg PUBLIC "-//W3C//DTD SVG 1.1//EN" "http://www.w3.org/Graphics/SVG/1.1/DTD/svg11.dtd"><svg t="1648677487381" class="icon" viewBox="0 0 1024 1024" version="1.1" xmlns="http://www.w3.org/2000/svg" p-id="14556" data-darkreader-inline-fill="" xmlns:xlink="http://www.w3.org/1999/xlink" width="200" height="200"><defs><style type="text/css"></style></defs><path d="M883.619095 0h-742.214446C87.402149 0.255936 43.637091 44.020995 43.381155 98.023494v671.832042c0 49.907523 42.485379 98.023494 97.767558 98.023494h409.497625l226.503375 156.12097v-156.12097h106.469382c53.490627 0 96.99975-43.253187 96.99975-96.743814v-673.111722c0.511872-53.490627-42.485379-97.255686-95.976006-98.023494h-1.023744z m-220.872782 680.533867l-42.229442-54.0025c-35.831042 19.195201-76.012997 28.92077-116.706824 28.408898-71.662084 0-131.295176-24.569858-178.899275-73.453637A243.79953 243.79953 0 0 1 253.504624 406.170457c-0.511872-43.765059 11.005249-87.018245 33.015746-124.896775 45.044739-76.524869 126.944264-123.617096 215.754061-123.873032 65.775556-0.767808 128.991752 25.593602 174.548363 72.685828 47.860035 46.580355 74.221445 110.820295 72.941765 177.363659 1.023744 61.424644-21.498625 120.8018-62.96026 166.102475l83.179205 106.469383-107.237191 0.511872zM502.530367 245.698575c-42.229443-1.023744-82.667333 15.612097-112.099975 45.812547-30.20045 30.456386-45.300675 69.35866-45.300674 116.194951 0 52.466883 18.939265 93.928518 56.817795 124.384904 28.408898 23.290177 64.23994 36.086978 101.094726 35.831042 20.986753 0.255936 41.973507-4.094976 61.168708-12.540864L478.728318 446.352412h108.516871l42.99725 55.026243c18.939265-27.64109 29.176706-60.4009 28.92077-93.928518 0.767808-42.741315-15.612097-83.947013-45.812547-114.403399-28.664834-30.712322-68.846788-47.860035-110.820295-47.348163z" p-id="14557" fill="#d4237a" data-darkreader-inline-fill="" style="--darkreader-inline-fill:#b03d76;"></path></svg>