<?xml version="1.0" standalone="no"?><!DOCTYPE svg PUBLIC "-//W3C//DTD SVG 1.1//EN" "http://www.w3.org/Graphics/SVG/1.1/DTD/svg11.dtd"><svg t="1648677379336" class="icon" viewBox="0 0 1024 1024" version="1.1" xmlns="http://www.w3.org/2000/svg" p-id="8216" data-darkreader-inline-fill="" xmlns:xlink="http://www.w3.org/1999/xlink" width="200" height="200"><defs><style type="text/css"></style></defs><path d="M836.4032 606.48106667v-434.72213334c0-55.15946667-45.32906667-100.48853333-100.48853333-100.48853333h-598.016c-55.15946667 0-100.48853333 45.32906667-100.48853334 100.48853333v432.5376c0 55.15946667 45.32906667 100.48853333 100.48853334 100.48853334v166.02453333c0 15.29173333 7.64586667 25.12213333 20.20693333 30.03733333 4.9152 2.73066667 7.64586667 2.73066667 12.56106667 2.73066667 9.8304 0 17.47626667-2.73066667 25.12213333-9.8304l175.85493333-188.416H735.91466667c55.15946667-1.09226667 100.48853333-46.42133333 100.48853333-98.85013333z m-477.86666667 39.86773333c-4.9152 0-9.8304 0-15.29173333 2.73066667-4.9152 2.73066667-9.8304 7.64586667-9.8304 7.64586666s-45.32906667 52.97493333-138.17173333 155.648v-133.25653333c0-17.47626667-17.47626667-32.768-32.768-32.768h-25.12213334c-17.47626667 0-42.5984-22.39146667-42.5984-40.41386667v-434.72213333c0-17.47626667 25.12213333-45.32906667 42.5984-45.32906667H735.91466667c22.39146667 0 42.5984 17.47626667 42.5984 45.32906667v432.5376c0 27.8528-12.56106667 42.5984-42.5984 42.5984h-377.37813334zM891.56266667 249.30986667z" p-id="8217"></path><path d="M891.56266667 249.30986667c-17.47626667 0-30.03733333 15.29173333-30.03733334 27.8528s7.64586667 32.768 30.03733334 32.768 42.5984 15.29173333 42.5984 40.41386666v367.0016c0 17.47626667-20.20693333 42.5984-42.5984 42.5984l-25.12213334 2.73066667c-17.47626667 0-32.768 15.29173333-32.768 32.768l2.73066667 67.72053333-87.92746667-95.57333333c-7.64586667-7.64586667-15.29173333-9.8304-25.12213333-9.8304h-166.02453333c-17.47626667 0-32.768 12.56106667-32.768 30.03733333s15.29173333 30.03733333 32.768 30.03733334h153.46346666l123.42613334 123.42613333c7.64586667 7.64586667 15.29173333 9.8304 22.39146666 9.8304 4.9152 0 7.64586667 0 12.56106667-2.73066667 12.56106667-4.9152 20.20693333-17.47626667 20.20693333-30.03733333v-100.48853333c55.15946667 0 100.48853333-45.32906667 100.48853334-100.48853334v-369.73226666c2.18453333-52.97493333-43.14453333-98.304-98.304-98.304zM446.464 501.07733333c-17.47626667 0-32.768 15.29173333-32.768 32.768s15.29173333 32.768 32.768 32.768 32.768-15.29173333 32.768-32.768c-2.73066667-18.0224-15.29173333-32.768-32.768-32.768zM446.464 184.32c-62.80533333 0-113.0496 52.97493333-113.0496 115.78026667 0 15.29173333 9.8304 25.12213333 25.12213333 25.12213333s25.12213333-12.56106667 25.12213334-25.12213333c0-34.95253333 27.8528-62.80533333 62.80533333-62.80533334s62.80533333 27.8528 62.80533333 62.80533334-27.8528 62.80533333-62.80533333 62.80533333c-15.29173333 0-25.12213333 12.56106667-25.12213333 25.12213333v60.07466667c0 15.29173333 9.8304 25.12213333 25.12213333 25.12213333s25.12213333-12.56106667 25.12213333-25.12213333v-34.95253333c50.24426667-12.56106667 87.92746667-57.89013333 87.92746667-113.0496 0-63.35146667-50.24426667-115.78026667-113.0496-115.78026667z" p-id="8218"></path></svg>